Poster: 
http://leetleech.org/images/96832103253464159822.jpg

IMDB: http://www.imdb.com/title/tt1605630/

Format : AVI
Format/Info : Audio Video Interleave
File size : 1.36 GB
Duration :113min
Overall bit rate : 1 740 Kbps

Video
ID : 0
Format : MPEG-4 Visual
Format profile : Advanced Simple@L5
Format settings, BVOP : 2
Format settings, QPel : No
Format settings, GMC : No warppoints
Format settings, Matrix : Default (H.263)
Codec ID : XVID
Codec ID/Hint : XviD
Duration : 56mn 15s
Bit rate : 1 283 Kbps
Width : 624 pixels
Height : 336 pixels
Display aspect ratio : 1.857
Frame rate : 23.976 fps
Color space : YUV
Chroma subsampling : 4:2:0
Bit depth : 8 bits
Scan type : Progressive
Compression mode : Lossy
Bits/(Pixel*Frame) : 0.255
Stream size : 516 MiB (74%)
Writing library : XviD 1.2.1 (UTC 2008-12-04)

Audio
ID : 1
Format : AC-3
Format/Info : Audio Coding 3
Mode extension : CM (complete main)
Codec ID : 2000
Duration : 56mn 15s
Bit rate mode : Constant
Bit rate : 448 Kbps
Channel(s) : 6 channels
Channel positions : Front: L C R, Side: L R, LFE
Sampling rate : 48.0 KHz
Bit depth : 16 bits
Compression mode : Lossy
Stream size : 180 MiB (26%)
Alignment : Aligned on interleaves
Interleave, duration : 42 ms (1.00 video frame)

SCREENS: 
http://imgh.us/CD2_American.Reunion.UNRATED.DVDRip.XviD.CD2-COCAIN-014.jpg 
http://imgh.us/CD2_American.Reunion.UNRATED.DVDRip.XviD.CD2-COCAIN-010.jpg 
http://imgh.us/CD2_American.Reunion.UNRATED.DVDRip.XviD.CD2-COCAIN-009.jpg 
http://imgh.us/CD2_American.Reunion.UNRATED.DVDRip.XviD.CD2-COCAIN-004.jpg 
http://imgh.us/CD2_American.Reunion.UNRATED.DVDRip.XviD.CD2-COCAIN-003.jpg 
http://imgh.us/CD2_American.Reunion.UNRATED.DVDRip.XviD.CD2-COCAIN-002.jpg